<svg viewBox="0 0 160 160" fill="none" xmlns="http://www.w3.org/2000/svg">
  <!-- GURUKUL ILLUSTRATION SYSTEM — goals/goal-lose-fat
       Fuller midsection in motion. Movement is the message, not a smaller body.
       GENERATED by scripts/generate-illustrations.mjs — edit the spec there,
       not this file. Accent = currentColor, structure = var(--ill-neutral). -->

  <line x1="34" y1="142" x2="126" y2="142" stroke="var(--ill-neutral)" stroke-width="3" stroke-linecap="round" opacity="0.5"/>
  <line x1="28" y1="58" x2="48" y2="58" stroke="var(--ill-neutral)" stroke-width="4" stroke-linecap="round" opacity="0.5"/>
  <line x1="22" y1="73" x2="39" y2="73" stroke="var(--ill-neutral)" stroke-width="4" stroke-linecap="round" opacity="0.3"/>
  <path d="M67.5 78 L60.5 110 L54.5 139" stroke="currentColor" stroke-width="11.9" stroke-linecap="round" fill="none"/>
  <path d="M92.5 78 L99.5 110 L104.5 139" stroke="currentColor" stroke-width="11.9" stroke-linecap="round" fill="none"/>
  <path d="M58 40 L52 60 L55 77" stroke="currentColor" stroke-width="8.4" stroke-linecap="round" fill="none"/>
  <path d="M102 40 L110 50 L115 37" stroke="currentColor" stroke-width="8.4" stroke-linecap="round" fill="none"/>
  <path d="M56 38 C55 47 50 51 54 65 C55 71 55 70 55 79 L105 79 C105 70 105 71 106 65 C110 51 105 47 104 38 C99 33 87 31 85 30 L75 30 C73 31 61 33 56 38 Z" fill="currentColor"/>
  <rect x="76" y="29" width="8" height="10" fill="currentColor"/>
  <ellipse cx="80" cy="22" rx="7" ry="8.4" fill="currentColor"/>
  <path d="M58 40 C57 50 52 53 55 63" stroke="#FFFFFF" stroke-opacity="0.26" stroke-width="2.4" stroke-linecap="round" fill="none"/>
</svg>
